<svg width="32" height="32" viewBox="0 0 32 32" fill="none" xmlns="http://www.w3.org/2000/svg">
<g clip-path="url(#clip0_395_5480)">
<path d="M17.9303 14.069C19.564 15.7044 19.5416 18.3264 17.9402 19.9367C17.9372 19.94 17.9336 19.9436 17.9303 19.9469L16.0928 21.7844C14.4722 23.405 11.8354 23.4048 10.215 21.7844C8.59435 20.164 8.59435 17.5269 10.215 15.9065L11.2296 14.8919C11.4987 14.6229 11.9621 14.8017 11.9759 15.1819C11.9937 15.6665 12.0806 16.1534 12.2409 16.6235C12.2952 16.7827 12.2564 16.9588 12.1375 17.0778L11.7796 17.4356C11.0133 18.2019 10.9892 19.4497 11.748 20.2236C12.5143 21.005 13.7738 21.0097 14.546 20.2375L16.3835 18.4003C17.1543 17.6294 17.1511 16.3835 16.3835 15.6159C16.2823 15.5149 16.1803 15.4364 16.1007 15.3816C16.0444 15.3429 15.9979 15.2916 15.9649 15.2317C15.9319 15.1719 15.9134 15.1052 15.9108 15.0369C15.8999 14.7479 16.0023 14.4502 16.2306 14.2219L16.8063 13.6461C16.9573 13.4952 17.1941 13.4766 17.3692 13.5988C17.5696 13.7388 17.7574 13.8962 17.9303 14.069ZM21.784 10.2152C20.1636 8.59472 17.5269 8.5945 15.9062 10.2152L14.0687 12.0527C14.0654 12.0559 14.0619 12.0595 14.0589 12.0628C12.4574 13.6731 12.435 16.2951 14.0687 17.9305C14.2416 18.1034 14.4294 18.2607 14.6298 18.4007C14.8049 18.5229 15.0417 18.5043 15.1927 18.3533L15.7684 17.7776C15.9967 17.5493 16.0991 17.2516 16.0882 16.9626C16.0856 16.8943 16.0671 16.8276 16.0341 16.7678C16.0011 16.7079 15.9546 16.6566 15.8983 16.6179C15.8186 16.5631 15.7167 16.4846 15.6155 16.3836C14.8479 15.616 14.8447 14.37 15.6155 13.5992L17.453 11.762C18.2252 10.9898 19.4846 10.9945 20.251 11.7759C21.0097 12.5497 20.9857 13.7976 20.2194 14.5639L19.8615 14.9217C19.7426 15.0407 19.7038 15.2168 19.7581 15.376C19.9184 15.8461 20.0053 16.333 20.023 16.8176C20.037 17.1978 20.5003 17.3766 20.7694 17.1076L21.784 16.0929C23.4047 14.4726 23.4047 11.8356 21.784 10.2152Z" fill="currentColor"/>
</g>
<defs>
<clipPath id="clip0_395_5480">
<rect width="14" height="14" fill="white" transform="translate(9 9)"/>
</clipPath>
</defs>
</svg>
