<svg width="32" height="32" viewBox="0 0 32 32" fill="none" xmlns="http://www.w3.org/2000/svg">
<g clip-path="url(#clip0_583_564)">
<path d="M23.0788 10H8.92102C8.4136 9.99833 7.92619 10.1905 7.56573 10.5345C7.20528 10.8784 7.00121 11.346 6.99829 11.8346V21.171C7.00143 21.6592 7.2057 22.1262 7.56622 22.4695C7.92675 22.8127 8.41404 23.0041 8.92102 23.0016H23.0788C23.5858 23.0041 24.0731 22.8127 24.4336 22.4695C24.7942 22.1262 24.9984 21.6592 25.0016 21.171V11.8346C24.9986 11.346 24.7946 10.8784 24.4341 10.5345C24.0737 10.1905 23.5863 9.99833 23.0788 10ZM12.4883 18.6096L10.8212 20.1975C10.6929 20.3212 10.5189 20.3909 10.3373 20.3914C10.1543 20.3911 9.97885 20.3215 9.84884 20.1975C9.78521 20.1367 9.73469 20.0644 9.70022 19.9847C9.66575 19.905 9.64801 19.8196 9.64801 19.7333C9.64801 19.647 9.66575 19.5615 9.70022 19.4818C9.73469 19.4021 9.78521 19.3298 9.84884 19.269L11.5155 17.6807C11.6454 17.5582 11.8201 17.4896 12.0019 17.4896C12.1837 17.4896 12.3583 17.5582 12.4883 17.6807C12.552 17.7415 12.6026 17.8138 12.6371 17.8935C12.6716 17.9732 12.6893 18.0587 12.6893 18.1451C12.6893 18.2315 12.6716 18.317 12.6371 18.3967C12.6026 18.4764 12.552 18.5488 12.4883 18.6096ZM15.9488 17.5991C15.4144 17.5994 14.8959 17.4248 14.4781 17.104L10.0657 13.6814C9.99542 13.6277 9.93701 13.5611 9.89388 13.4854C9.85074 13.4096 9.82373 13.3264 9.81444 13.2405C9.80514 13.1546 9.81374 13.0678 9.83974 12.9851C9.86574 12.9025 9.90861 12.8257 9.96584 12.7592C10.081 12.6236 10.2473 12.5375 10.4282 12.5197C10.6092 12.5019 10.79 12.5539 10.9313 12.6642L15.3437 16.0832C15.5155 16.2155 15.7289 16.2876 15.9488 16.2876C16.1687 16.2876 16.3821 16.2155 16.5538 16.0832L21.2101 12.474C21.3523 12.365 21.5334 12.3144 21.7141 12.3329C21.8948 12.3514 22.0607 12.4376 22.176 12.5728C22.233 12.6394 22.2758 12.7162 22.3017 12.7988C22.3276 12.8815 22.3361 12.9683 22.3269 13.0541C22.3176 13.1399 22.2906 13.2232 22.2476 13.2989C22.2045 13.3746 22.1462 13.4413 22.0762 13.4951L17.4195 17.1043C17.0016 17.4251 16.4828 17.5996 15.9484 17.5991H15.9488ZM22.2754 20.3173C22.1454 20.4397 21.9709 20.5082 21.7892 20.5082C21.6074 20.5082 21.4329 20.4397 21.303 20.3173L19.5128 18.608C19.4491 18.5473 19.3985 18.475 19.3639 18.3953C19.3294 18.3156 19.3116 18.2301 19.3116 18.1437C19.3116 18.0574 19.3294 17.9719 19.3639 17.8922C19.3985 17.8125 19.4491 17.7402 19.5128 17.6795C19.6424 17.5566 19.8171 17.4877 19.999 17.4877C20.1809 17.4877 20.3556 17.5566 20.4852 17.6795L22.2754 19.3888C22.3394 19.4496 22.3902 19.522 22.4249 19.6019C22.4596 19.6818 22.4774 19.7675 22.4774 19.8541C22.4774 19.9407 22.4594 20.0264 22.4247 20.1062C22.3899 20.1861 22.3391 20.2585 22.275 20.3193L22.2754 20.3173Z" fill="currentColor"/>
</g>
<defs>
<clipPath id="clip0_583_564">
<rect width="18" height="13" fill="white" transform="translate(7 10)"/>
</clipPath>
</defs>
</svg>
