<svg width="32" height="32" viewBox="0 0 32 32" fill="none" xmlns="http://www.w3.org/2000/svg">
<path d="M23.942 10.9338C23.4137 11.1614 22.8582 11.3199 22.2893 11.4054C22.5553 11.3597 22.9466 10.8806 23.1024 10.6866C23.339 10.3941 23.5194 10.0602 23.6343 9.70176C23.6343 9.67514 23.6609 9.63711 23.6343 9.6181C23.6209 9.61078 23.6059 9.60694 23.5906 9.60694C23.5753 9.60694 23.5603 9.61078 23.5469 9.6181C22.9292 9.95289 22.2718 10.2084 21.5903 10.3786C21.5665 10.3859 21.5412 10.3865 21.5171 10.3805C21.493 10.3745 21.471 10.362 21.4535 10.3444C21.4004 10.2812 21.3433 10.2215 21.2825 10.1657C21.0045 9.9164 20.6891 9.71237 20.3479 9.56106C19.8872 9.3719 19.3897 9.28999 18.8928 9.32149C18.4106 9.35197 17.9399 9.48141 17.5098 9.70176C17.0863 9.93407 16.7142 10.2497 16.4156 10.6296C16.1016 11.0207 15.8749 11.4745 15.7508 11.9605C15.6484 12.4229 15.6368 12.9007 15.7166 13.3675C15.7166 13.4474 15.7166 13.4588 15.6482 13.4474C12.9393 13.0481 10.7167 12.086 8.90062 10.0212C8.82084 9.92992 8.77905 9.92992 8.71446 10.0212C7.9242 11.2228 8.30793 13.1242 9.29575 14.0634C9.42872 14.1889 9.5655 14.3106 9.70987 14.4247C9.25696 14.3925 8.81512 14.2696 8.41051 14.0634C8.33453 14.014 8.29274 14.0406 8.28894 14.1319C8.27817 14.2584 8.27817 14.3856 8.28894 14.5121C8.36821 15.1185 8.60697 15.6929 8.98079 16.1767C9.35461 16.6604 9.85008 17.0361 10.4165 17.2653C10.5546 17.3245 10.6985 17.3691 10.8459 17.3984C10.4266 17.481 9.99656 17.4938 9.5731 17.4364C9.48191 17.4174 9.44772 17.4668 9.48191 17.5543C10.0404 19.0753 11.2524 19.5393 12.1414 19.7979C12.263 19.8169 12.3846 19.8169 12.5214 19.8473C12.5214 19.8473 12.5214 19.8473 12.4986 19.8701C12.2364 20.3492 11.1764 20.6725 10.6901 20.8398C9.80245 21.1589 8.85606 21.2809 7.91661 21.1972C7.76843 21.1744 7.73424 21.1782 7.69625 21.1972C7.65825 21.2162 7.69625 21.2581 7.73804 21.2961C7.928 21.4216 8.11797 21.5319 8.31553 21.6383C8.90368 21.9594 9.52547 22.2145 10.1696 22.3989C13.5054 23.3191 17.2591 22.6423 19.7628 20.1515C21.7308 18.1969 22.4223 15.5008 22.4223 12.8009C22.4223 12.6983 22.5477 12.6374 22.6199 12.5842C23.1178 12.1959 23.5567 11.7373 23.923 11.2228C23.9865 11.1461 24.019 11.0485 24.0142 10.949V10.949C24.0142 10.892 24.0142 10.9034 23.942 10.9338Z" fill="currentColor"/>
</svg>
