<svg width="32" height="32" viewBox="0 0 32 32" fill="none" xmlns="http://www.w3.org/2000/svg">
<path fill-rule="evenodd" clip-rule="evenodd" d="M17.3254 9.17602L23.8919 12.4593C24.1954 12.611 24.2001 13.0424 23.9001 13.2007L15.3717 17.7018C14.8961 17.9528 14.3288 17.959 13.8479 17.7186L8.49322 15.0412C7.84089 14.7792 7.11149 15.2578 7.11149 15.9787C7.11149 16.5584 7.43898 17.0883 7.95743 17.3475L13.3259 20.0317C13.6536 19.6981 14.1099 19.4911 14.6145 19.4911C15.1048 19.4911 15.5494 19.6864 15.8748 20.0034L22.5614 16.4744C22.5431 16.3712 22.5335 16.265 22.5335 16.1565C22.5335 15.159 23.3422 14.3504 24.3397 14.3504C25.3372 14.3504 26.1459 15.159 26.1459 16.1565C26.1459 17.1541 25.3372 17.9627 24.3397 17.9627C23.852 17.9627 23.4094 17.7694 23.0844 17.4552L16.394 20.9862C16.4116 21.0872 16.4207 21.1912 16.4207 21.2972C16.4207 22.2948 15.6121 23.1034 14.6145 23.1034C13.617 23.1034 12.8084 22.2948 12.8084 21.2972C12.8084 21.205 12.8153 21.1143 12.8286 21.0258L7.38244 18.3027C6.53519 17.8791 6 17.0131 6 16.0659V15.5383C6 14.8168 6.39928 14.1547 7.03731 13.818L15.8016 9.19276C16.2771 8.94179 16.8445 8.93555 17.3254 9.17602ZM14.6145 21.9919C14.9982 21.9919 15.3092 21.6809 15.3092 21.2972C15.3092 20.9136 14.9982 20.6026 14.6145 20.6026C14.2309 20.6026 13.9199 20.9136 13.9199 21.2972C13.9199 21.6809 14.2309 21.9919 14.6145 21.9919ZM25.0344 16.1565C25.0344 16.5402 24.7234 16.8512 24.3397 16.8512C23.9561 16.8512 23.645 16.5402 23.645 16.1565C23.645 15.7729 23.9561 15.4618 24.3397 15.4618C24.7234 15.4618 25.0344 15.7729 25.0344 16.1565Z" fill="currentColor"/>
</svg>
