<svg width="32" height="32" viewBox="0 0 32 32" fill="none" xmlns="http://www.w3.org/2000/svg">
<path d="M8.90252 15.4332C8.90252 15.4332 15.4128 12.6912 17.6707 11.7257C18.5363 11.3395 21.4715 10.1036 21.4715 10.1036C21.4715 10.1036 22.8263 9.56293 22.7134 10.876C22.6757 11.4167 22.3747 13.3091 22.0736 15.356C21.622 18.2525 21.1328 21.4194 21.1328 21.4194C21.1328 21.4194 21.0576 22.3077 20.4178 22.4622C19.7781 22.6166 18.7244 21.9215 18.5363 21.767C18.3857 21.6512 15.7139 19.9132 14.7354 19.0635C14.472 18.8318 14.171 18.3684 14.773 17.8277C16.1278 16.5532 17.746 14.9698 18.7244 13.9657C19.176 13.5022 19.6275 12.4208 17.746 13.7339C15.0741 15.6263 12.4399 17.4029 12.4399 17.4029C12.4399 17.4029 11.8378 17.7891 10.7088 17.4415C9.57985 17.0939 8.26274 16.6305 8.26274 16.6305C8.26274 16.6305 7.35963 16.0512 8.90252 15.4332Z" fill="currentColor"/>
</svg>
