<svg width="32" height="32" viewBox="0 0 32 32" fill="none" xmlns="http://www.w3.org/2000/svg">
<path fill-rule="evenodd" clip-rule="evenodd" d="M15.9401 7.35602C10.9709 7.35602 6.94611 11.3648 6.94611 16.3143C6.94611 20.2783 9.52065 23.6265 13.0958 24.8134C13.5455 24.8918 13.7141 24.6231 13.7141 24.3879C13.7141 24.1752 13.7029 23.4697 13.7029 22.7194C11.4431 23.1338 10.8585 22.1708 10.6786 21.6668C10.5774 21.4093 10.139 20.6143 9.75674 20.4015C9.44195 20.2335 8.99225 19.8192 9.7455 19.808C10.4538 19.7968 10.9597 20.4575 11.1283 20.7262C11.9378 22.0812 13.2307 21.7004 13.7478 21.4653C13.8265 20.883 14.0626 20.4911 14.3212 20.2671C12.32 20.0432 10.2289 19.2705 10.2289 15.844C10.2289 14.8698 10.5774 14.0635 11.1508 13.4364C11.0609 13.2125 10.7461 12.2943 11.2408 11.0625C11.2408 11.0625 11.994 10.8273 13.7141 11.9807C14.4336 11.7792 15.1981 11.6784 15.9626 11.6784C16.7271 11.6784 17.4916 11.7792 18.2111 11.9807C19.9312 10.8161 20.6845 11.0625 20.6845 11.0625C21.1792 12.2943 20.8644 13.2125 20.7744 13.4364C21.3478 14.0635 21.6963 14.8586 21.6963 15.844C21.6963 19.2817 19.594 20.0432 17.5928 20.2671C17.9188 20.5471 18.1999 21.0846 18.1999 21.9244C18.1999 23.1226 18.1887 24.0856 18.1887 24.3879C18.1887 24.6231 18.3573 24.903 18.807 24.8134C22.3596 23.6265 24.9342 20.2671 24.9342 16.3143C24.9342 11.3648 20.9094 7.35602 15.9401 7.35602Z" fill="currentColor"/>
</svg>
