<svg width="32" height="32" viewBox="0 0 32 32" fill="none" xmlns="http://www.w3.org/2000/svg">
<path d="M21.8343 10.7552C23.7199 13.5472 24.6511 16.6964 24.303 20.3219C24.3015 20.3372 24.2936 20.3513 24.2811 20.3606C22.8532 21.4165 21.4698 22.0573 20.1057 22.4823C20.0951 22.4855 20.0837 22.4853 20.0732 22.4817C20.0627 22.4782 20.0536 22.4714 20.0471 22.4623C19.7319 22.0207 19.4456 21.5552 19.1948 21.0663C19.1804 21.0375 19.1935 21.0028 19.2232 20.9915C19.6779 20.8189 20.1103 20.6121 20.5262 20.3673C20.559 20.3479 20.5611 20.3007 20.5308 20.278C20.4426 20.212 20.3551 20.1426 20.2714 20.0733C20.2558 20.0604 20.2347 20.0579 20.217 20.0665C17.5166 21.3223 14.5586 21.3223 11.8264 20.0665C11.8086 20.0585 11.7875 20.0613 11.7723 20.0739C11.6888 20.1432 11.6012 20.212 11.5137 20.278C11.4835 20.3007 11.486 20.3479 11.519 20.3673C11.9349 20.6075 12.3673 20.8189 12.8214 20.9923C12.8508 21.0037 12.8648 21.0375 12.8502 21.0663C12.6048 21.5558 12.3185 22.0213 11.9975 22.4629C11.9835 22.4808 11.9606 22.489 11.9388 22.4823C10.5813 22.0573 9.19784 21.4165 7.76995 20.3606C7.75805 20.3513 7.7495 20.3366 7.74825 20.3213C7.45732 17.1853 8.05023 14.01 10.2146 10.7546C10.2198 10.746 10.2278 10.7393 10.2369 10.7353C11.3019 10.243 12.4428 9.88091 13.6353 9.6741C13.657 9.67074 13.6787 9.68083 13.69 9.70017C13.8373 9.96288 14.0058 10.2998 14.1197 10.5751C15.3767 10.3818 16.6533 10.3818 17.9365 10.5751C18.0505 10.3057 18.2131 9.96288 18.3598 9.70017C18.365 9.69057 18.3731 9.68289 18.3829 9.67821C18.3927 9.67353 18.4038 9.67209 18.4145 9.6741C19.6076 9.88154 20.7485 10.2437 21.8126 10.7353C21.822 10.7393 21.8298 10.746 21.8343 10.7552ZM14.7587 16.7178C14.7719 15.7908 14.1007 15.0236 13.2582 15.0236C12.4226 15.0236 11.7579 15.784 11.7579 16.7178C11.7579 17.6514 12.4358 18.4118 13.2582 18.4118C14.094 18.4118 14.7587 17.6514 14.7587 16.7178ZM20.3063 16.7178C20.3194 15.7908 19.6483 15.0236 18.806 15.0236C17.9701 15.0236 17.3054 15.784 17.3054 16.7178C17.3054 17.6514 17.9833 18.4118 18.806 18.4118C19.6483 18.4118 20.3063 17.6514 20.3063 16.7178Z" fill="currentColor"/>
</svg>
