<svg width="170" height="20" viewBox="0 0 170 20" fill="none" xmlns="http://www.w3.org/2000/svg">
<g clip-path="url(#clip0_583_519)">
<path d="M2.25705 13.7865C3.6138 15.2097 5.73135 16.4041 8.39414 16.4041C10.6512 16.4041 11.7543 15.324 11.7543 14.2313C11.7543 12.7827 10.0806 12.2872 7.8489 11.7662C4.69159 11.0419 0.634013 10.1652 0.634013 5.84498C0.634013 2.61753 3.4236 0 7.96302 0C11.0316 0 13.5802 0.927573 15.4949 2.70648L13.2125 5.73062C11.6529 4.28208 9.56069 3.60864 7.68406 3.60864C5.80743 3.60864 4.84375 4.42185 4.84375 5.57814C4.84375 6.88691 6.46679 7.29352 8.69846 7.81449C11.8811 8.53875 15.9387 9.50445 15.9387 13.7992C15.9387 17.3443 13.4154 20.0127 8.20394 20.0127C4.50139 20.0127 1.82593 18.7675 0.0126953 16.9377L2.26973 13.7992L2.25705 13.7865Z" fill="white"/>
<path d="M32.7013 19.6569L31.4841 16.3151H22.849L21.6317 19.6569H17.1177L24.5862 0.292236H29.7469L37.19 19.6569H32.7013ZM27.1729 3.86276L23.9522 12.7446H30.3555L27.1729 3.86276Z" fill="white"/>
<path d="M41.9199 19.6569V3.92629H36.2773V0.292236H51.6835V3.92629H46.0663V19.6569H41.9199Z" fill="white"/>
<path d="M55.7663 13.7865C57.1231 15.2097 59.2406 16.4041 61.9034 16.4041C64.1604 16.4041 65.2636 15.324 65.2636 14.2313C65.2636 12.7827 63.5898 12.2872 61.3582 11.7662C58.2009 11.0419 54.1433 10.1652 54.1433 5.84498C54.1433 2.61753 56.9202 0 61.4723 0C64.5408 0 67.0895 0.927573 69.0042 2.69377L66.7218 5.71792C65.1622 4.26938 63.07 3.59593 61.1933 3.59593C59.3167 3.59593 58.353 4.40915 58.353 5.56544C58.353 6.87421 59.9761 7.28081 62.2077 7.80178C65.3904 8.52605 69.448 9.49174 69.448 13.7865C69.448 17.3316 66.9247 20 61.7132 20C58.0107 20 55.3352 18.7548 53.522 16.925L55.779 13.7865H55.7663Z" fill="white"/>
<path d="M106.537 19.6569L102.745 12.7192H99.7274V19.6569H95.6191V0.292236H104.66C108.692 0.292236 111.152 2.93518 111.152 6.53112C111.152 10.1271 109.009 11.7789 106.93 12.2744L111.279 19.6442H106.562L106.537 19.6569ZM104.051 3.83734H99.7401V9.17407H104.051C105.7 9.17407 106.942 8.13213 106.942 6.50571C106.942 4.87928 105.7 3.83734 104.051 3.83734Z" fill="white"/>
<path d="M114.969 19.6569V0.292236H122.589C128.638 0.292236 132.847 4.15501 132.847 9.98728C132.847 15.8196 128.65 19.6569 122.589 19.6569H114.969ZM119.077 16.0229H122.577C126.406 16.0229 128.625 13.2656 128.625 9.98728C128.625 6.70901 126.546 3.92629 122.577 3.92629H119.077V16.0229Z" fill="white"/>
<path d="M136.461 19.6569V0.292236H150.13V3.83734H140.57V8.04319H149.928V11.5883H140.57V16.0864H150.13V19.6569H136.461Z" fill="white"/>
<path d="M165.283 19.6569L161.491 12.7192H158.474V19.6569H154.365V0.292236H163.406C167.438 0.292236 169.898 2.93518 169.898 6.53112C169.898 10.1271 167.755 11.7789 165.676 12.2744L170.025 19.6442H165.308L165.283 19.6569ZM162.797 3.83734H158.486V9.17407H162.797C164.446 9.17407 165.688 8.13213 165.688 6.50571C165.688 4.87928 164.446 3.83734 162.797 3.83734Z" fill="white"/>
<path d="M92.3689 8.48848L83.896 -0.00219727L82.4166 1.4803L90.8895 9.97098L92.3689 8.48848Z" fill="#E65E29"/>
<path d="M82.4134 18.4631L73.9404 9.97241L72.461 11.4549L80.934 19.9456L82.4134 18.4631Z" fill="#E65E29"/>
<path d="M73.9372 9.98164L82.4102 1.49097L80.9308 0.00846842L72.4578 8.49915L73.9372 9.98164Z" fill="#E65E29"/>
<path d="M83.8894 19.9563L92.3623 11.4656L90.8829 9.98308L82.41 18.4738L83.8894 19.9563Z" fill="#E65E29"/>
</g>
<defs>
<clipPath id="clip0_583_519">
<rect width="170" height="20" fill="white"/>
</clipPath>
</defs>
</svg>
