<svg width="174" height="40" viewBox="0 0 174 40" fill="none" xmlns="http://www.w3.org/2000/svg">
<g clip-path="url(#clip0_169_4)">
<path d="M5.23544 23.8014C6.55576 25.1863 8.61644 26.3487 11.2077 26.3487C13.4041 26.3487 14.4777 25.2976 14.4777 24.2342C14.4777 22.8246 12.8489 22.3423 10.6771 21.8354C7.60461 21.1305 3.65599 20.2773 3.65599 16.0731C3.65599 12.9324 6.37067 10.3851 10.7882 10.3851C13.7743 10.3851 16.2545 11.2878 18.1178 13.0189L15.8967 15.9619C14.379 14.5522 12.3429 13.8969 10.5167 13.8969C8.69048 13.8969 7.75268 14.6882 7.75268 15.8135C7.75268 17.0871 9.33213 17.4828 11.5039 17.9898C14.6011 18.6946 18.5497 19.6343 18.5497 23.8138C18.5497 27.2637 16.0941 29.8604 11.0226 29.8604C7.41952 29.8604 4.8159 28.6486 3.05136 26.868L5.24778 23.8138L5.23544 23.8014Z" fill="white"/>
<path d="M34.8624 29.5142L33.6779 26.2621H25.2747L24.0901 29.5142H19.6973L26.9652 10.6695H31.9874L39.2306 29.5142H34.8624ZM29.4825 14.1442L26.3482 22.7875H32.5797L29.4825 14.1442Z" fill="white"/>
<path d="M43.8332 29.5142V14.206H38.3422V10.6695H53.3346V14.206H47.8682V29.5142H43.8332Z" fill="white"/>
<path d="M57.3079 23.8014C58.6282 25.1863 60.6889 26.3487 63.2801 26.3487C65.4766 26.3487 66.5501 25.2976 66.5501 24.2342C66.5501 22.8246 64.9213 22.3423 62.7495 21.8354C59.677 21.1305 55.7284 20.2773 55.7284 16.0731C55.7284 12.9324 58.4307 10.3851 62.8606 10.3851C65.8467 10.3851 68.327 11.2878 70.1902 13.0066L67.9691 15.9495C66.4514 14.5399 64.4154 13.8845 62.5891 13.8845C60.7629 13.8845 59.8251 14.6759 59.8251 15.8011C59.8251 17.0747 61.4045 17.4704 63.5763 17.9774C66.6735 18.6822 70.6221 19.622 70.6221 23.8014C70.6221 27.2513 68.1665 29.848 63.095 29.848C59.4919 29.848 56.8883 28.6362 55.1238 26.8556L57.3202 23.8014H57.3079Z" fill="white"/>
<path d="M106.715 29.5142L103.025 22.7627H100.089V29.5142H96.0907V10.6695H104.889C108.813 10.6695 111.206 13.2415 111.206 16.7409C111.206 20.2402 109.121 21.8477 107.097 22.33L111.33 29.5018H106.74L106.715 29.5142ZM104.296 14.1194H100.101V19.3128H104.296C105.9 19.3128 107.11 18.2989 107.11 16.7161C107.11 15.1334 105.9 14.1194 104.296 14.1194Z" fill="white"/>
<path d="M114.921 29.5142V10.6695H122.337C128.223 10.6695 132.319 14.4286 132.319 20.1042C132.319 25.7799 128.235 29.5142 122.337 29.5142H114.921ZM118.919 25.9777H122.324C126.051 25.9777 128.21 23.2944 128.21 20.1042C128.21 16.914 126.187 14.206 122.324 14.206H118.919V25.9777Z" fill="white"/>
<path d="M135.836 29.5142V10.6695H149.138V14.1194H139.834V18.2123H148.94V21.6622H139.834V26.0395H149.138V29.5142H135.836Z" fill="white"/>
<path d="M163.883 29.5142L160.194 22.7627H157.257V29.5142H153.259V10.6695H162.057C165.981 10.6695 168.375 13.2415 168.375 16.7409C168.375 20.2402 166.29 21.8477 164.266 22.33L168.498 29.5018H163.908L163.883 29.5142ZM161.465 14.1194H157.27V19.3128H161.465C163.069 19.3128 164.278 18.2989 164.278 16.7161C164.278 15.1334 163.069 14.1194 161.465 14.1194Z" fill="white"/>
<path d="M92.9273 18.6457L84.6819 10.383L83.2422 11.8257L91.4876 20.0883L92.9273 18.6457Z" fill="#7E6FFE"/>
<path d="M83.2389 28.3524L74.9935 20.0897L73.5538 21.5324L81.7992 29.7951L83.2389 28.3524Z" fill="#7E6FFE"/>
<path d="M74.9907 20.0988L83.2361 11.8361L81.7964 10.3934L73.551 18.6561L74.9907 20.0988Z" fill="#7E6FFE"/>
<path d="M84.6752 29.8055L92.9206 21.5428L91.4809 20.1001L83.2355 28.3628L84.6752 29.8055Z" fill="#7E6FFE"/>
</g>
<defs>
<clipPath id="clip0_169_4">
<rect width="165.435" height="19.4629" fill="white" transform="translate(3.03908 10.3851)"/>
</clipPath>
</defs>
</svg>
